<svg id="Capa_1" enable-background="new 0 0 512 512" height="512" viewBox="0 0 512 512" width="512" xmlns="http://www.w3.org/2000/svg"><g><path d="m59.35 351.057h393.3l7-95.034c-33.8-1.17-62.31-23.501-72.62-54.109l-31.59 20.542-54.58-107.869c-12.88 8.977-28.53 14.245-45.39 14.245-16.75 0-32.31-5.198-45.14-14.065l-53.84 107.649-31.52-20.502c-10.31 30.608-38.82 52.94-72.62 54.109z"/><path d="m40.584 482.011h430.832v29.989h-430.832z"/><path d="m30.563 411.038h33.211l3.016 40.98h378.42l3.016-40.98h33.211v-29.988h-450.874z"/><ellipse cx="49.543" cy="176.669" rx="49.543" ry="49.422"/><ellipse cx="462.457" cy="176.669" rx="49.543" ry="49.422"/><ellipse cx="255.468" cy="49.422" rx="49.543" ry="49.422"/></g></svg>