<svg id="Capa_1" enable-background="new 0 0 512.003 512.003" height="512" viewBox="0 0 512.003 512.003" width="512" xmlns="http://www.w3.org/2000/svg"><g><path d="m511.795 163.031c-1.809-38.71-17.302-74.926-43.626-101.975-26.534-27.265-61.304-42.45-97.904-42.757h-.126c-31.073 0-59.409 11.23-84.22 33.377-10.806 9.646-20.818 21.271-29.917 34.722-9.1-13.45-19.111-25.076-29.917-34.722-24.812-22.147-53.147-33.377-84.221-33.377h-.126c-36.601.308-71.37 15.493-97.904 42.757-26.325 27.05-41.818 63.265-43.625 101.961-2.458 51.57 16.877 109.884 54.444 164.2 43.551 62.968 110.768 119.289 194.383 162.872l6.933 3.614 6.934-3.614c83.619-43.586 150.847-99.905 194.413-162.87 37.585-54.317 56.931-112.629 54.479-164.188z"/></g></svg>