<svg id="Capa_1" enable-background="new 0 0 512 512" height="512" viewBox="0 0 512 512" width="512" xmlns="http://www.w3.org/2000/svg"><g><path d="m0 167.08h125.04v177.84h-125.04z"/><path d="m407.685 177.354-10.527-10.685-21.37 21.056 10.528 10.685c31.289 31.755 31.289 83.425 0 115.181l-10.528 10.685 21.37 21.056 10.527-10.685c42.729-43.367 42.729-113.927 0-157.293z"/><path d="m452.965 111.4-10.527-10.685-21.37 21.056 10.528 10.685c67.123 68.123 67.123 178.966 0 247.089l-10.528 10.685 21.37 21.056 10.527-10.685c38.069-38.637 59.035-89.991 59.035-144.601s-20.966-105.964-59.035-144.6z"/><path d="m274.667 0h30v512h-30z"/><path d="m155.04 367.28 89.627 78.194v-378.948l-89.627 78.194z"/></g></svg>