<svg id="Capa_1" enable-background="new 0 0 512 512" height="512" viewBox="0 0 512 512" width="512" xmlns="http://www.w3.org/2000/svg"><g><path d="m211 422h90v90h-90z"/><path d="m211 0h90v90h-90z"/><path d="m0 211h90v90h-90z"/><path d="m422 211h90v90h-90z"/><path d="m61.8 360.199h90v90h-90z" transform="matrix(.707 -.707 .707 .707 -255.238 194.2)"/><path d="m61.8 61.8h90v90h-90z" transform="matrix(.707 -.707 .707 .707 -44.238 106.8)"/><path d="m360.199 360.199h90v90h-90z" transform="matrix(.707 -.707 .707 .707 -167.839 405.202)"/><path d="m241 241h30v30h-30z"/><path d="m171 241h30v30h-30z"/><path d="m311 241h30v30h-30z"/></g></svg>