<svg id="Capa_1" enable-background="new 0 0 512 512" height="512" viewBox="0 0 512 512" width="512" xmlns="http://www.w3.org/2000/svg"><g><circle cx="256" cy="321" r="25"/><path d="m399 196v-53c0-78.85-64.15-143-143-143s-143 64.15-143 143v53h-47v126c0 104.77 85.23 190 190 190s190-85.23 190-190v-126zm-128 177.9v46.77h-30v-46.77c-23.06-6.54-40-27.77-40-52.9 0-30.33 24.67-55 55-55s55 24.67 55 55c0 25.13-16.94 46.36-40 52.9zm98-177.9h-226v-53c0-62.31 50.69-113 113-113s113 50.69 113 113z"/></g></svg>