<svg id="Capa_1" enable-background="new 0 0 512 512" height="512" viewBox="0 0 512 512" width="512" xmlns="http://www.w3.org/2000/svg"><g><path d="m459.36 100.798 22.356.016.021-29.995-68.649-.05-8.857 69.165 29.757 3.809 2.932-22.897c29.215 38.88 45.045 85.92 45.081 135.379.044 60.354-23.42 117.076-66.069 159.719-42.61 42.604-99.273 66.06-159.574 66.059h-.17c-60.371-.044-117.146-23.593-159.868-66.308-42.723-42.714-66.276-99.482-66.32-159.843-.044-60.354 23.42-117.077 66.069-159.719 63.987-63.976 159.69-83.545 243.813-49.854l11.156-27.844c-95.288-38.164-203.693-15.991-276.181 56.488-48.323 48.314-74.907 112.577-74.857 180.951.05 68.366 26.723 132.657 75.105 181.032s112.684 75.044 181.06 75.094h.192c68.31-.002 132.512-26.578 180.786-74.845 48.323-48.314 74.907-112.577 74.857-180.951-.041-56.904-18.542-110.976-52.64-155.406z"/><path d="m256 100.059c-86.02 0-156 69.97-156 155.98s69.98 155.98 156 155.98 156-69.97 156-155.98-69.98-155.98-156-155.98zm64.3 170.98h-79.3v-79.29h30v49.29h49.3z"/></g></svg>