<svg id="Capa_1" enable-background="new 0 0 512.005 512.005" height="512" viewBox="0 0 512.005 512.005" width="512" xmlns="http://www.w3.org/2000/svg"><g><circle cx="308.188" cy="203.815" r="110.142"/><path d="m452.378 59.625c-79.51-79.5-208.87-79.5-288.38 0-75.93 75.94-79.34 197.36-10.22 277.38l-39.1 39.11-25.69-25.69-73.97 73.97c-20.02 20.02-20.02 52.58 0 72.59 10 10.01 23.15 15.02 36.29 15.02 13.15 0 26.29-5.01 36.3-15.02l73.97-73.97-25.69-25.69 39.11-39.1c38.13 32.93 85.66 49.4 133.19 49.4 52.22 0 104.43-19.87 144.19-59.62 79.5-79.51 79.5-208.87 0-288.38zm-144.19 284.34c-77.28 0-140.15-62.87-140.15-140.15s62.87-140.15 140.15-140.15 140.15 62.87 140.15 140.15-62.871 140.15-140.15 140.15z"/></g></svg>