<svg id="Capa_1" enable-background="new 0 0 512 512" height="512" viewBox="0 0 512 512" width="512" xmlns="http://www.w3.org/2000/svg"><g><path d="m402.567 232.245c33.95 0 65.11 12.19 89.32 32.44 14.62-34.84 21.44-69.4 19.9-101.66-1.8-38.71-17.3-74.92-43.62-101.97-26.54-27.27-61.31-42.45-97.91-42.76h-.12c-31.08 0-59.41 11.23-84.22 33.38-10.81 9.64-20.82 21.27-29.92 34.72-9.1-13.45-19.11-25.08-29.92-34.72-24.81-22.15-53.14-33.38-84.22-33.38h-.12c-36.6.31-71.37 15.49-97.91 42.76-26.32 27.05-41.82 63.26-43.62 101.96-2.46 51.57 16.87 109.88 54.44 164.2 43.55 62.97 110.77 119.29 194.379 162.87l6.94 3.62 6.93-3.62c13.42-7 26.47-14.34 39.06-21.97-24.03-25.06-38.82-59.06-38.82-96.44.002-76.89 62.552-139.43 139.431-139.43z"/><path d="m402.568 262.245c-60.34 0-109.43 49.09-109.43 109.43s49.09 109.43 109.43 109.43 109.43-49.09 109.43-109.43-49.09-109.43-109.43-109.43zm40 124.43h-80v-30h80z"/></g></svg>