<svg id="Capa_1" enable-background="new 0 0 512 512" height="512" viewBox="0 0 512 512" width="512" xmlns="http://www.w3.org/2000/svg"><g><path d="m308.187 93.75c-60.74 0-110.15 49.4-110.15 110.12s49.41 110.12 110.15 110.12c60.73 0 110.13-49.4 110.13-110.12.001-60.72-49.4-110.12-110.13-110.12zm59.151 125.12h-118.32v-30h118.32z"/><path d="m452.368 59.71c-38.511-38.5-89.721-59.71-144.181-59.71-54.48 0-105.68 21.21-144.19 59.71-38.52 38.5-59.72 89.71-59.72 144.16 0 49.43 17.47 96.17 49.5 133.17l-39.11 39.1-25.69-25.69-73.97 73.96c-20.01 20.01-20.01 52.57 0 72.58 10.011 10.01 23.15 15.01 36.301 15.01 13.14 0 26.29-5 36.29-15.01l73.98-73.96-25.69-25.68 39.11-39.1c38.12 32.93 85.65 49.4 133.19 49.4 52.21 0 104.43-19.87 144.18-59.62 79.509-79.49 79.509-208.82 0-288.32zm-144.181 284.29c-77.28 0-140.16-62.87-140.16-140.13 0-77.27 62.88-140.12 140.16-140.12 77.27 0 140.14 62.85 140.14 140.12.001 77.26-62.87 140.13-140.14 140.13z"/></g></svg>