<svg id="Capa_1" enable-background="new 0 0 512 512" height="512" viewBox="0 0 512 512" width="512" xmlns="http://www.w3.org/2000/svg"><g><path d="m95.412 390.23c-7.251 7.26-7.251 19.06 0 26.32 7.262 7.25 19.074 7.26 26.325 0l64.123-64.11-26.325-26.31z"/><path d="m228.299 352.44-85.337 85.32c-9.482 9.48-21.935 14.22-34.387 14.22s-24.895-4.74-34.377-14.22c-18.954-18.95-18.954-49.79 0-68.74l85.337-85.32 23.775 23.76 42.429-42.42-66.204-66.19-127.766 127.74c-42.359 42.35-42.359 111.25 0 153.6 20.514 20.51 47.79 31.81 76.806 31.81s56.302-11.3 76.816-31.81l127.776-127.75-66.214-66.19-42.429 42.42z"/><path d="m416.578 121.77c7.262-7.26 7.262-19.06 0-26.32-7.251-7.25-19.064-7.25-26.315 0l-64.123 64.11 26.325 26.31z"/><path d="m480.231 31.81c-20.514-20.51-47.79-31.81-76.806-31.81s-56.302 11.3-76.816 31.81l-127.776 127.75 66.214 66.19 42.429-42.42-23.775-23.77 85.338-85.32c18.964-18.96 49.81-18.95 68.764 0s18.954 49.79 0 68.74l-85.338 85.32-23.775-23.76-42.429 42.42 66.203 66.19 127.766-127.74c42.36-42.35 42.36-111.25.001-153.6z"/><path d="m228.211 241.001h55.577v29.999h-55.577z" transform="matrix(.707 -.707 .707 .707 -106.039 256.037)"/></g></svg>