<svg id="Capa_1" enable-background="new 0 0 512 512" height="512" viewBox="0 0 512 512" width="512" xmlns="http://www.w3.org/2000/svg"><g><path d="m319.08 406.322v-215.559h-126.16v215.559l-32.899-32.966-21.234 21.192 117.213 117.452 117.213-117.452-21.234-21.192z"/><path d="m481.91 167.343c.64-4.85.96-9.75.96-14.64 0-61.781-50.26-112.042-112.04-112.042-5.74 0-11.46.43-17.1 1.3-29.63-27.121-67.62-41.961-107.85-41.961-38.16 0-75.17 13.75-104.21 38.731-25.65 22.06-43.8 51.711-51.91 84.431-22.7 2.94-43.67 13.38-60 30.081-19.19 19.62-29.76 45.62-29.76 73.211 0 57.421 46.22 104.132 103.03 104.132h59.89v-169.823h186.16v169.823h69.88c51.3 0 93.04-42.171 93.04-94.012 0-26.7-10.86-51.451-30.09-69.231z"/></g></svg>