<svg id="Capa_1" enable-background="new 0 0 512 512" height="512" viewBox="0 0 512 512" width="512" xmlns="http://www.w3.org/2000/svg"><g><path d="m263.14 362.57c0-13.84 2.03-27.21 5.8-39.84h-241.14l-27.8 26.16v60.89h271.38c-5.34-14.75-8.24-30.65-8.24-47.21z"/><path d="m378.38 225.24v-56.17c0-76.68-64.7-139.07-144.24-139.07h-4.64v-30h-30v30h-4.64c-79.54 0-144.24 62.39-144.24 139.07v123.66h231.31c20.29-34.91 55.29-60.26 96.45-67.49z"/><path d="m214.5 512c41.77 0 76.28-31.65 80.82-72.22h-161.64c4.54 40.57 39.05 72.22 80.82 72.22z"/><path d="m402.57 253.14c-60.34 0-109.43 49.09-109.43 109.43s49.09 109.43 109.43 109.43 109.43-49.09 109.43-109.43-49.09-109.43-109.43-109.43zm40 124.43h-80v-30h80z"/></g></svg>