<svg id="Capa_1" enable-background="new 0 0 512 512" height="512" viewBox="0 0 512 512" width="512" xmlns="http://www.w3.org/2000/svg"><g><path d="m481.91 167.34c.64-4.85.96-9.75.96-14.64 0-61.78-50.26-112.04-112.04-112.04-5.74 0-11.46.43-17.1 1.3-29.63-27.12-67.62-41.96-107.85-41.96-38.16 0-75.17 13.75-104.21 38.73-25.65 22.06-43.8 51.71-51.91 84.43-22.7 2.94-43.67 13.38-60 30.08-19.19 19.62-29.76 45.62-29.76 73.21 0 57.42 46.22 104.13 103.03 104.13h57.26v-47.37l-63.93-63.35 159.64-161.09 159.64 161.09-63.93 63.35v47.37h67.25c51.3 0 93.04-42.17 93.04-94.01 0-26.7-10.86-51.45-30.09-69.23z"/><path d="m351.904 240.782 21.309-21.117-117.213-118.274-117.213 118.274 21.309 21.117 32.824-33.121v304.339h126.16v-304.339z"/></g></svg>