<svg id="Capa_1" enable-background="new 0 0 512 512" height="512" viewBox="0 0 512 512" width="512" xmlns="http://www.w3.org/2000/svg"><g><path d="m140 370h30v50h-30z"/><path d="m210 370h30v50h-30z"/><path d="m241.65 462h30v50h-30z"/><path d="m280 370h30v50h-30z"/><path d="m311.65 462h30v50h-30z"/><path d="m382 462h30v50h-30z"/><path d="m481.91 167.34c.64-4.85.96-9.75.96-14.64 0-61.78-50.26-112.04-112.04-112.04-5.74 0-11.46.43-17.1 1.3-29.63-27.12-67.62-41.96-107.85-41.96-38.16 0-75.17 13.75-104.21 38.73-17.65 15.18-31.76 33.96-41.47 54.86 69.62 5.62 124.58 64.7 124.58 136.53h-30c0-58.83-47.07-106.73-105.02-106.96-22.7 2.94-43.67 13.38-60 30.08-19.19 19.62-29.76 45.62-29.76 73.21 0 57.42 46.22 104.13 103.03 104.13h315.93c51.3 0 93.04-42.17 93.04-94.01 0-26.7-10.86-51.45-30.09-69.23z"/></g></svg>