<svg id="Capa_1" enable-background="new 0 0 512 512" height="512" viewBox="0 0 512 512" width="512" xmlns="http://www.w3.org/2000/svg"><g><circle cx="256" cy="279.554" r="30"/><path d="m256 180c-55.69 0-101 45.31-101 101s45.31 101 101 101 101-45.31 101-101-45.31-101-101-101zm0 159.55c-33.08 0-60-26.91-60-60 0-33.08 26.92-60 60-60s60 26.92 60 60c0 33.09-26.92 60-60 60z"/><path d="m472 115v-30h-30v30h-61.11l-30-70h-189.78l-30 70h-51.11v-30h-30v30h-50v352h512v-352zm-216 297c-72.23 0-131-58.77-131-131s58.77-131 131-131 131 58.77 131 131-58.77 131-131 131z"/></g></svg>