<svg id="Capa_1" enable-background="new 0 0 512 512" height="512" viewBox="0 0 512 512" width="512" xmlns="http://www.w3.org/2000/svg"><g><g><g><path d="m512 512h-160v-30h130v-130h30z"/></g><g><path d="m512 160h-30v-130h-130v-30h160z"/></g><g><path d="m30 160h-30v-160h160v30h-130z"/></g><g><path d="m160 512h-160v-160h30v130h130z"/></g><g><path d="m30 160h-30v-160h160v30h-130z"/></g><g><path d="m512 160h-30v-130h-130v-30h160z"/></g><g><path d="m160 512h-160v-160h30v130h130z"/></g></g><path d="m102.13 102.13v307.74h307.74v-307.74zm213.01 168.87h-44.14v44.14h-30v-44.14h-44.14v-30h44.14v-44.14h30v44.14h44.14z"/></g></svg>