<svg id="Capa_1" enable-background="new 0 0 512 512" height="512" viewBox="0 0 512 512" width="512" xmlns="http://www.w3.org/2000/svg"><g><path d="m256 135.987c-55.69 0-101 45.306-101 100.99s45.31 100.99 101 100.99 101-45.306 101-100.99-45.31-100.99-101-100.99zm-15.19 151.925-39.68-39.676 21.21-21.208 18.47 18.468 48.85-48.855 21.21 21.218zm15.19-151.925c-55.69 0-101 45.306-101 100.99s45.31 100.99 101 100.99 101-45.306 101-100.99-45.31-100.99-101-100.99zm-15.19 151.925-39.68-39.676 21.21-21.208 18.47 18.468 48.85-48.855 21.21 21.218zm215.16-203.95c-38.03 0-68.97-30.937-68.97-68.963v-14.999h-262v14.999c0 38.026-30.94 68.963-68.97 68.963h-15v311.98l214.97 116.058 214.97-116.059v-311.979zm-199.97 284.002c-72.23 0-131-58.764-131-130.987s58.77-130.987 131-130.987 131 58.764 131 130.987-58.77 130.987-131 130.987zm0-231.977c-55.69 0-101 45.306-101 100.99s45.31 100.99 101 100.99 101-45.306 101-100.99-45.31-100.99-101-100.99zm-15.19 151.925-39.68-39.676 21.21-21.208 18.47 18.468 48.85-48.855 21.21 21.218z"/></g></svg>