<svg id="Capa_1" enable-background="new 0 0 512 512" height="512" viewBox="0 0 512 512" width="512" xmlns="http://www.w3.org/2000/svg"><g><path d="m437.02 74.98c-48.353-48.351-112.64-74.98-181.02-74.98s-132.667 26.629-181.02 74.98c-48.351 48.353-74.98 112.64-74.98 181.02s26.629 132.667 74.98 181.02c48.353 48.351 112.64 74.98 181.02 74.98v-30c-124.617 0-226-101.383-226-226s101.383-226 226-226 226 101.383 226 226v76.456c0 21.973-17.876 39.849-39.848 39.849s-39.848-17.876-39.848-39.849v-190.238h-30v25.128c-.001-.002-.003-.004-.005-.006-26.75-35.01-68.93-57.64-116.3-57.64-80.67 0-146.3 65.63-146.3 146.3s65.631 146.3 146.301 146.3c47.879 0 90.469-23.119 117.179-58.788 5.314 33.28 34.221 58.793 68.974 58.793 38.514 0 69.848-31.334 69.848-69.849v-76.456c-.001-68.38-26.63-132.667-74.981-181.02zm-181.02 297.32c-64.13 0-116.3-52.17-116.3-116.3s52.17-116.3 116.3-116.3 116.3 52.17 116.3 116.3-52.17 116.3-116.3 116.3z"/></g></svg>